<svg id="BG" xmlns="http://www.w3.org/2000/svg" viewBox="0 0 180 180">
    <defs>
        <style>.cls-1{fill:none;stroke:#fff;stroke-linecap:round;stroke-linejoin:round;stroke-width:3.73px;}</style>
    </defs>
    <path class="cls-1"
          d="M75.09,116.45a37.56,37.56,0,0,0-.25-7.42,58.39,58.39,0,0,0-3.91-11.57c-2.92-7.24-6.64-14.87-5.4-23,1.7-11,13.36-18.32,24.48-18.62a23.78,23.78,0,0,1,9.49,1.53,21.83,21.83,0,0,1,12.48,17,36.67,36.67,0,0,1-3.91,21.3c-3.48,7.21-7.42,13.57-7.83,21.82a4.29,4.29,0,0,1-.7,2.72c-1.08,1.24-3.4,1.06-4.89,1.16q-3.23.2-6.45.25c-1.08,0-12.54.65-12.58.49A19.27,19.27,0,0,1,75.09,116.45Z"/>
    <path class="cls-1" d="M99.09,129.38a80.45,80.45,0,0,0-23.28,2.36"/>
    <path class="cls-1" d="M96.18,138c0-.41-.47-.53-.81-.59a37.38,37.38,0,0,0-17.6,2"/>
    <path class="cls-1" d="M84,146a4.22,4.22,0,0,0,6-.12l.19-.21"/>
    <path class="cls-1"
          d="M85,111.93a104.58,104.58,0,0,1,.21-13.48,26.36,26.36,0,0,0-2.32-13.16,1.27,1.27,0,0,0-.65-.7c-.68-.26-1.23.6-1.39,1.33-.74,3.91,1.74,7.55,4.46,10.36a8.49,8.49,0,0,0,1.8,1.53,5.24,5.24,0,0,0,5.46-.59,8.52,8.52,0,0,0,3-4.85,24.64,24.64,0,0,0,.53-5.87c0-.92,0-2-.92-2.44a1.73,1.73,0,0,0-2,.7A5.17,5.17,0,0,0,92.56,87a183.15,183.15,0,0,0-1.2,25.43"/>
    <path class="cls-1" d="M88.68,45.64a35.08,35.08,0,0,0-.76-11.73"/>
    <path class="cls-1" d="M112.31,53.86c3.17-2.17,5.24-5.63,8.39-7.82"/>
    <path class="cls-1" d="M65.84,53.86q-4.56-5.07-8.78-10.39"/>
    <path class="cls-1" d="M121.49,73.69q4.45-1.35,9-2.46"/>
    <path class="cls-1" d="M52.74,73.59l-9-4.69"/>
</svg>